<svg width="680" height="458" viewBox="0 0 680 458" fill="none" xmlns="http://www.w3.org/2000/svg">
<path d="M288 68.0977C289.195 63.6379 290.792 59.3931 292.741 55.3918M300.829 42.5475C313.599 26.449 332.99 16.546 353.76 15.8645C360.535 15.6422 367.457 16.4012 374.345 18.2466C382.304 20.3793 389.578 23.7919 396.005 28.2038M403.687 34.3099C406.923 37.275 409.863 40.5256 412.476 44.01" stroke="#111B2A"/>
<path d="M637.385 88.4426C641.485 90.5661 645.289 93.0362 648.779 95.7982M659.59 106.452C672.576 122.378 678.09 143.441 674.302 163.874C673.066 170.539 670.84 177.138 667.561 183.469C663.771 190.785 658.877 197.159 653.19 202.49M645.579 208.684C641.988 211.209 638.183 213.383 634.219 215.188" stroke="#F3C25D"/>
<path d="M340.164 374C340.722 378.583 340.827 383.117 340.514 387.557M337.812 402.493C331.983 422.198 317.698 438.629 298.687 447.023C292.485 449.761 285.781 451.643 278.703 452.505C270.524 453.501 262.501 453.054 254.891 451.364M245.484 448.57C241.374 447.03 237.433 445.113 233.707 442.857" stroke="#00B48F"/>
<path d="M52.6895 317.043C49.2388 313.975 46.1604 310.645 43.4578 307.109M35.6028 294.12C26.938 275.488 26.7795 253.716 35.4821 234.845C38.3211 228.689 42.103 222.841 46.8402 217.513C52.3149 211.354 58.6267 206.382 65.4519 202.615M74.3538 198.486C78.4552 196.922 82.6788 195.752 86.9647 194.979" stroke="#00B48F"/>
<circle cx="599.5" cy="302.5" r="69" stroke="#111B2A"/>
</svg>
